<?xml version="1.0" encoding="utf-8"?>
<!-- Generator: Adobe Illustrator 21.0.0, SVG Export Plug-In . SVG Version: 6.00 Build 0)  -->
<svg version="1.1" id="Layer_1" xmlns="http://www.w3.org/2000/svg" xmlns:xlink="http://www.w3.org/1999/xlink" x="0px" y="0px"
	 viewBox="0 0 100 100" style="enable-background:new 0 0 100 100;" xml:space="preserve">
<style type="text/css">
	.st0{display:none;fill:#FFFFFF;}
	.st1{fill:#FFFFFF;}
</style>
<path class="st0" d="M64.2,17.6H52.9c-6.6,0-12,5.4-12,12v9.5h-6c-0.5,0-0.8,0.4-0.8,0.8v9.8c0,0.5,0.4,0.8,0.8,0.8h6v0.5v32.2
	c0,0.5,0.4,0.8,0.8,0.8h11.9c0.5,0,0.8-0.4,0.8-0.8V50.6h8.7c0.4,0,0.8-0.3,0.8-0.8l0.8-9.8c0-0.5-0.3-0.9-0.8-0.9h-9.5v-7
	c0-1.6,1.3-3,3-3h6.7c0.5,0,0.8-0.4,0.8-0.8v-9.8C65,18,64.6,17.6,64.2,17.6z"/>
<g>
	<path class="st1" d="M50,97.5C23.8,97.5,2.5,76.2,2.5,50S23.8,2.5,50,2.5S97.5,23.8,97.5,50S76.2,97.5,50,97.5z M50,7.5
		C26.6,7.5,7.5,26.6,7.5,50S26.6,92.5,50,92.5S92.5,73.4,92.5,50S73.4,7.5,50,7.5z"/>
</g>
<path class="st0" d="M76.7,35.7c-1.6,0.7-3.4,1.1-5.1,1.4c0.8-0.1,2-1.6,2.4-2.2c0.7-0.9,1.3-1.9,1.7-3c0-0.1,0.1-0.2,0-0.3
	c-0.1,0-0.2,0-0.3,0c-1.9,1-3.9,1.8-5.9,2.3c-0.2,0-0.3,0-0.4-0.1c-0.2-0.2-0.3-0.4-0.5-0.5c-0.9-0.7-1.8-1.3-2.9-1.8
	c-1.4-0.6-2.9-0.8-4.4-0.7c-1.5,0.1-2.9,0.5-4.2,1.2c-1.3,0.7-2.5,1.6-3.4,2.8c-1,1.2-1.7,2.6-2,4c-0.3,1.4-0.3,2.8-0.1,4.3
	c0,0.2,0,0.3-0.2,0.2c-8.2-1.2-14.9-4.1-20.4-10.4c-0.2-0.3-0.4-0.3-0.6,0c-2.4,3.6-1.2,9.4,1.8,12.2c0.4,0.4,0.8,0.8,1.3,1.1
	c-0.2,0-2.2-0.2-3.9-1.1c-0.2-0.2-0.4-0.1-0.4,0.2c0,0.4,0,0.7,0.1,1.2c0.5,3.6,3,7,6.4,8.3c0.4,0.2,0.9,0.3,1.3,0.4
	c-0.8,0.2-1.6,0.3-3.9,0.1c-0.3-0.1-0.4,0.1-0.3,0.4c1.7,4.6,5.4,6,8.1,6.8c0.4,0.1,0.7,0.1,1.1,0.2c0,0,0,0-0.1,0.1
	c-0.9,1.4-4.1,2.4-5.5,2.9c-2.7,0.9-5.6,1.4-8.4,1.1c-0.5-0.1-0.5-0.1-0.7,0c-0.1,0.1,0,0.2,0.1,0.3c0.6,0.4,1.2,0.7,1.8,1
	c1.8,1,3.7,1.7,5.6,2.2c10.1,2.8,21.5,0.7,29.1-6.8c6-5.9,8-14.1,8-22.3c0-0.3,0.4-0.5,0.6-0.7c1.6-1.2,2.9-2.6,4-4.1
	c0.3-0.3,0.4-0.7,0.4-0.8c0,0,0,0,0,0C77,35.5,76.9,35.6,76.7,35.7z"/>
<g>
	<path class="st1" d="M50.7,38.8c-6.6,0-12,5.4-12,12c0,6.6,5.4,12,12,12c6.6,0,12-5.4,12-12C62.7,44.2,57.3,38.8,50.7,38.8z
		 M50.7,58.5c-4.2,0-7.7-3.5-7.7-7.7c0-4.2,3.5-7.7,7.7-7.7c4.2,0,7.7,3.5,7.7,7.7C58.4,55.1,54.9,58.5,50.7,58.5z"/>
	<path class="st1" d="M60.3,26.5h-20c-8.1,0-14.7,6.6-14.7,14.7v20c0,8.1,6.6,14.7,14.7,14.7h20c8.1,0,14.7-6.6,14.7-14.7v-20
		C75,33.1,68.4,26.5,60.3,26.5z M70.2,60.9c0,5.6-4.5,10.1-10.1,10.1H40.5c-5.6,0-10.1-4.5-10.1-10.1V41.4c0-5.6,4.5-10.1,10.1-10.1
		h19.6c5.6,0,10.1,4.5,10.1,10.1V60.9z"/>
	<circle class="st1" cx="63.4" cy="38" r="2.9"/>
</g>
</svg>
